<?xml version="1.0" encoding="UTF-8"?>
<svg version="1.1" xmlns="http://www.w3.org/2000/svg" width="48" height="48">
<path d="M0 0 C15.84 0 31.68 0 48 0 C48 15.84 48 31.68 48 48 C32.16 48 16.32 48 0 48 C0 32.16 0 16.32 0 0 Z " fill="#FDFDFD" transform="translate(0,0)"/>
<path d="M0 0 C0.99 0 1.98 0 3 0 C4.85873821 3.92928436 6.70992725 7.86200819 8.55419922 11.7980957 C9.18266751 13.13663258 9.81318926 14.47420731 10.44580078 15.81079102 C11.35470368 17.73204338 12.2561678 19.65663378 13.15625 21.58203125 C13.70087891 22.73936768 14.24550781 23.8967041 14.80664062 25.08911133 C16 28 16 28 16 31 C14.17260742 30.81835938 14.17260742 30.81835938 12 30 C10.55200195 27.79101562 10.55200195 27.79101562 9.23828125 24.90625 C8.75939453 23.87628906 8.28050781 22.84632812 7.78710938 21.78515625 C7.30048828 20.70105469 6.81386719 19.61695312 6.3125 18.5 C5.33082658 16.36393961 4.34782587 14.22848853 3.36328125 12.09375 C2.93313721 11.14177734 2.50299316 10.18980469 2.05981445 9.20898438 C1.18678618 7.07623322 1.18678618 7.07623322 0 6 C-3.63 14.25 -7.26 22.5 -11 31 C-11.66 30.67 -12.32 30.34 -13 30 C-11.31250727 25.88694992 -9.62177162 21.77525315 -7.92797852 17.66479492 C-7.35188243 16.26542583 -6.77668409 14.86568681 -6.20239258 13.46557617 C-5.37815688 11.45654609 -4.55073255 9.44885583 -3.72265625 7.44140625 C-3.22515869 6.23170166 -2.72766113 5.02199707 -2.21508789 3.77563477 C-1 1 -1 1 0 0 Z " fill="#767B89" transform="translate(22,7)"/>
<path d="M0 0 C0.33 0 0.66 0 1 0 C0.59116216 7.306889 -1.93500234 12.94387011 -5.0625 19.5 C-5.53494141 20.51320313 -6.00738281 21.52640625 -6.49414062 22.5703125 C-7.65290727 25.05171178 -8.82164977 27.5278563 -10 30 C-10.66 29.67 -11.32 29.34 -12 29 C-8.04 19.43 -4.08 9.86 0 0 Z " fill="#7E8290" transform="translate(21,8)"/>
</svg>
